<svg xmlns="http://www.w3.org/2000/svg" version="1.1" xmlns:xlink="http://www.w3.org/1999/xlink" xmlns:svgjs="http://svgjs.dev/svgjs" width="1000" height="623" viewBox="0 0 1000 623"><g transform="matrix(1,0,0,1,-0.6060606060606233,122.23893988467671)"><svg viewBox="0 0 396 247" data-background-color="#102e44" preserveAspectRatio="xMidYMid meet" height="623" width="1000" xmlns="http://www.w3.org/2000/svg" xmlns:xlink="http://www.w3.org/1999/xlink"><g id="tight-bounds" transform="matrix(1,0,0,1,0.2400000000000091,-0.09999999999999432)"><svg viewBox="0 0 395.52 247.2" height="247.2" width="395.52"><g><svg></svg></g><g><svg viewBox="0 0 395.52 247.2" height="247.2" width="395.52"><g transform="matrix(1,0,0,1,75.54432,59.02720854440777)"><svg viewBox="0 0 244.43135999999998 129.14558291118445" height="129.14558291118445" width="244.43135999999998"><g><svg viewBox="0 0 244.43135999999998 129.14558291118445" height="129.14558291118445" width="244.43135999999998"><g><svg viewBox="0 0 244.43135999999998 129.14558291118445" height="129.14558291118445" width="244.43135999999998"><g><svg viewBox="0 0 244.43135999999998 129.14558291118445" height="129.14558291118445" width="244.43135999999998"><g id="textblocktransform"><svg viewBox="0 0 244.43135999999998 129.14558291118445" height="129.14558291118445" width="244.43135999999998" id="textblock"><g><svg viewBox="0 0 244.43135999999998 129.14558291118445" height="129.14558291118445" width="244.43135999999998"><g transform="matrix(1,0,0,1,0,0)"><svg width="244.43135999999998" viewBox="5 -39.05 73.90731707317073 39.05" height="129.14558291118445" data-palette-color="#ffffff"><path d="M6.95 0L6.95 0Q6.15 0 5.58-0.58 5-1.15 5-1.95L5-1.95 5-37.1Q5-37.95 5.58-38.5 6.15-39.05 6.95-39.05L6.95-39.05Q8.15-39.05 8.7-38.05L8.7-38.05 25.55-4.55 23.85-4.55 40.4-38.05Q41-39.05 42.15-39.05L42.15-39.05Q42.95-39.05 43.5-38.5 44.05-37.95 44.05-37.1L44.05-37.1 44.05-1.95Q44.05-1.15 43.5-0.58 42.95 0 42.15 0L42.15 0Q41.3 0 40.73-0.58 40.15-1.15 40.15-1.95L40.15-1.95 40.15-32.05 41-32 26.25-1.85Q25.7-0.9 24.55-0.9L24.55-0.9Q23.3-0.9 22.75-2.1L22.75-2.1 7.9-31.8 8.9-32.05 8.9-1.95Q8.9-1.15 8.33-0.58 7.75 0 6.95 0ZM56 0L56 0Q55.15 0 54.6-0.55 54.05-1.1 54.05-1.95L54.05-1.95 54.05-37.1Q54.05-37.95 54.6-38.5 55.15-39.05 56-39.05L56-39.05 65.35-39.05Q69-39.05 71.85-37.52 74.7-36 76.32-33.27 77.95-30.55 77.95-27L77.95-27Q77.95-23.6 76.32-20.95 74.7-18.3 71.85-16.8 69-15.3 65.35-15.3L65.35-15.3 57.95-15.3 57.95-1.95Q57.95-1.1 57.4-0.55 56.85 0 56 0ZM76.9 0L76.9 0Q76.25 0 75.87-0.25 75.5-0.5 75.2-1L75.2-1 65.6-16.3 69.5-17.3 78.45-3Q79.2-1.8 78.72-0.9 78.25 0 76.9 0ZM57.95-35.3L57.95-19.05 65.35-19.05Q67.9-19.05 69.87-20.08 71.85-21.1 73-22.9 74.15-24.7 74.15-27L74.15-27Q74.15-29.45 73-31.33 71.85-33.2 69.87-34.25 67.9-35.3 65.35-35.3L65.35-35.3 57.95-35.3Z" opacity="1" transform="matrix(1,0,0,1,0,0)" fill="#ffffff" class="wordmark-text-0" data-fill-palette-color="primary" id="text-0"></path></svg></g></svg></g></svg></g></svg></g><g></g></svg></g></svg></g></svg></g><g><path d="M120.948 28.539A122.216 122.216 0 0 1 274.572 28.539L262.926 28.539A110.569 110.569 0 0 0 132.594 28.539L120.948 28.539M120.948 218.661A122.216 122.216 0 0 0 274.572 218.661L262.926 218.661A110.569 110.569 0 0 1 132.594 218.661L120.948 218.661" fill="#ffffff" stroke="transparent" data-fill-palette-color="tertiary"></path></g></svg></g><defs></defs></svg><rect width="395.52" height="247.2" fill="none" stroke="none" visibility="hidden"></rect></g></svg></g></svg>